<?xml version="1.0" encoding="utf-8"?>
<!-- Generator: Adobe Illustrator 15.1.0, SVG Export Plug-In . SVG Version: 6.00 Build 0)  -->
<!DOCTYPE svg PUBLIC "-//W3C//DTD SVG 1.1//EN" "http://www.w3.org/Graphics/SVG/1.1/DTD/svg11.dtd">
<svg version="1.1" id="Layer_1" xmlns="http://www.w3.org/2000/svg" xmlns:xlink="http://www.w3.org/1999/xlink" x="0px" y="0px"
	 width="420.939px" height="323.315px" viewBox="0 83.365 420.939 323.315" enable-background="new 0 83.365 420.939 323.315"
	 xml:space="preserve">
<g>
	<path fill="#666666" d="M414.446,83.365H6.499C2.908,83.365,0,86.333,0,89.99v245.568c0,3.658,2.908,6.626,6.499,6.626h407.946
		c3.586,0,6.494-2.968,6.494-6.626V89.99C420.94,86.333,418.031,83.365,414.446,83.365z M210.47,334.456
		c-7.029,0-12.726-5.699-12.726-12.727c0-7.028,5.699-12.725,12.726-12.725c7.025,0,12.726,5.699,12.726,12.725
		C223.196,328.756,217.5,334.456,210.47,334.456z M393.667,301.968H27.273V105.793h366.396v196.175H393.667z M338.44,368.354
		c0,21.169-57.294,38.326-127.97,38.326c-70.677,0-127.971-17.157-127.971-38.326c0-5.404,3.742-10.554,10.489-15.217h234.965
		C334.702,357.801,338.44,362.949,338.44,368.354z"/>
</g>
</svg>
