<svg xmlns="http://www.w3.org/2000/svg" viewBox="491.36 1224.84 1009.779 326.81"><path d="M966.396 1293.453h52.371s51.854-1.046 51.331 46.085c-.518 35.095-50.274 40.329-50.274 40.329h-53.423v-86.414h-.005zm156.676 169.179c1.472 6.855 6.43 14.411 22.972 15.187 21.994.517 34.565-7.866 34.565-7.866v16.237s-24.092 5.77-35.616 5.77c-12.044 0-47.661-2.627-47.661-35.618 0-26.706 29.332-35.088 46.086-35.088 29.332 1.045 43.472 11.525 42.948 41.374 0 .43-48.257.107-63.294.004zm.07-13.106h40.185s0-15.186-19.38-15.186c-14.578.001-19.345 7.861-20.805 15.186zm127.122-16.397c5.813-6.309 15.576-11.359 31.951-11.359 32.474 0 37.714 27.234 37.191 34.565-.523 7.332-3.144 35.089-40.846 35.089-14.244 0-22.96-4.86-28.291-10.894v8.796h-25.666v-94.273h25.666v38.076h-.005zm22.005 43.632c15.187-.528 21.995-13.61 21.995-19.896s-3.672-19.381-23.052-19.381c-15.036 0-19.616 11.359-20.948 16.91v6.831c1.321 5.66 5.924 15.536 22.005 15.536zm221.544-2.615l.518 14.669s-12.043 2.614-19.897 2.614c-7.854 0-28.291-4.711-28.291-24.62v-30.377h-21.466v-13.611h21.466v-16.237h26.194v16.237h21.477v13.611h-21.477v26.194s0 13.094 10.479 13.094c10.469.001 10.997-1.574 10.997-1.574zm-79.61-166.553h30.377v72.797h25.653v-72.797h30.906v-15.19h-86.937v15.19zm-10.48 3.666l3.144-15.191s-13.095-5.757-36.135-5.757c-22.523 0-58.657 12.571-58.657 46.614 0 33.52 38.231 45.039 61.801 45.039 23.567 0 31.422-3.665 31.422-3.665l-2.614-16.761s-10.48 3.143-28.292 3.143c-17.282-.522-35.076-14.14-35.076-29.324.518-13.618 16.226-28.809 36.663-28.809 15.701 0 27.744 4.711 27.744 4.711zm-231.496-18.328s42.949-2.092 42.949 23.046c0 21.477-24.609 23.045-24.609 23.045s6.803 1.046 9.951 5.757c2.614 4.188 19.897 35.617 19.897 35.617h-26.194s-4.188-5.24-6.285-8.9c-1.569-3.665-6.286-11.524-6.286-11.524s-3.659-13.095-16.237-13.095c-.315 0-5.43-.195-9.429-.346v33.865h-25.137v-87.465h41.38zm-16.238 39.282h13.623s18.852-1.051 19.896-12.571c.529-10.997-18.322-12.571-18.322-12.571h-15.196l-.001 25.142zm105.272 13.617h41.902v-16.237h-41.902v-19.902h45.573v-16.76h-71.223v87.465h71.752v-15.715h-46.098v-18.851h-.004zm102.128 67.034h25.665v-17.812h-25.665v17.812zm0 76.468h25.665v-66.511h-25.665v66.511zm-279.668-108.936h25.138v-87.465h-25.138v87.465zm-117.325 22h52.371s51.854-1.058 51.331 46.085c-.518 35.089-50.274 40.335-50.274 40.335h-53.423v-86.42h-.005zm25.666 70.182h16.761s34.564-2.098 34.564-28.809-36.662-29.331-36.662-29.331h-14.663v58.14zm0-108.942h16.761s34.564-2.62 34.564-28.808c0-27.235-36.662-29.327-36.662-29.327h-14.663v58.135zm-260.828-18.115v175.24s-101.611-18.334-101.611-87.988c.006-55.554 75.222-80.043 101.611-87.252zm0-3.27c-61.07-4.419-199.545 24.206-199.545 86.851 0 40.846 73.325 100.559 192.736 102.128 4.711 0 140.359-5.24 138.268-150.839-1.758-122.29-93.285-143.71-122.554-147.438v-7.452c116.682 7.406 208.45 77.577 208.45 162.744 0 90.085-102.656 163.405-228.876 163.405-126.219 0-228.354-73.325-228.354-163.405 0-90.079 102.128-163.404 228.354-163.404 3.867 0 7.711.068 11.525.206v117.205h-.004z"/></svg>