<svg xmlns="http://www.w3.org/2000/svg" viewBox="142.875 1.715 14.25 21.535">
  <path d="M150 15.75a1.128 1.128 0 0 0-1.125 1.125c0 .401.214.771.563.971a.377.377 0 0 1 .188.326l-.375 2.453h1.5l-.375-2.453c0-.134.071-.258.188-.326.349-.199.563-.569.563-.971A1.131 1.131 0 0 0 150 15.75z"/>
  <path fill="#EAA326" d="M155.625 13.125h-11.25a1.5 1.5 0 0 0-1.5 1.5v7.125a1.5 1.5 0 0 0 1.5 1.5h11.25a1.5 1.5 0 0 0 1.5-1.5v-7.125a1.5 1.5 0 0 0-1.5-1.5zM151.5 21a.375.375 0 0 1-.375.375h-2.25A.375.375 0 0 1 148.5 21l.375-2.625a1.875 1.875 0 1 1 2.25 0L151.5 21z"/>
  <path d="M151.403 5.413a.374.374 0 0 0-.092.744 2.94 2.94 0 0 1 1.835.954.375.375 0 0 0 .558-.501 3.696 3.696 0 0 0-2.301-1.197zM154.918 6.327a.376.376 0 0 0 .48-.548 5.25 5.25 0 0 0-4.285-2.229.376.376 0 0 0-.385.364.373.373 0 0 0 .363.385h.021a4.499 4.499 0 0 1 3.673 1.91.36.36 0 0 0 .133.118z"/>
  <path d="M150.896 2.479a5.959 5.959 0 0 1 5.504 2.862.374.374 0 0 0 .64-.389 6.707 6.707 0 0 0-6.193-3.221.375.375 0 0 0 .049.748z"/>
  <path fill="#EAA326" d="M146.625 12a3.375 3.375 0 1 1 6.75 0v.375h1.875V12a5.25 5.25 0 0 0-10.5 0v.375h1.875V12z"/>
</svg>
