<?xml version="1.0" standalone="no"?>
<!DOCTYPE svg PUBLIC "-//W3C//DTD SVG 20010904//EN"
 "http://www.w3.org/TR/2001/REC-SVG-20010904/DTD/svg10.dtd">
<svg version="1.0" xmlns="http://www.w3.org/2000/svg"
 width="700.000000pt" height="700.000000pt" viewBox="0 0 700.000000 700.000000"
 preserveAspectRatio="xMidYMid meet">
<metadata>
Created by potrace 1.11, written by Peter Selinger 2001-2013
</metadata>
<g transform="translate(0.000000,700.000000) scale(0.100000,-0.100000)"
fill="#000000" stroke="none">
<path d="M0 3500 l0 -3500 3500 0 3500 0 0 3500 0 3500 -3500 0 -3500 0 0
-3500z m3016 1065 c371 -1095 454 -1352 469 -1452 4 -24 10 -43 13 -43 4 0 15
42 25 93 16 86 181 584 673 2039 l179 528 878 0 877 0 0 -405 0 -405 -251 0
-251 0 6 -47 c3 -27 55 -649 116 -1383 61 -734 113 -1350 116 -1367 l5 -33
239 0 240 0 0 -405 0 -405 -1010 0 -1010 0 2 402 3 403 221 3 222 2 -5 43 c-2
23 -26 386 -54 807 -52 776 -56 943 -33 1183 8 76 -10 96 -21 25 -18 -108 -70
-321 -97 -393 -57 -156 -598 -1657 -598 -1661 0 -2 -212 -3 -471 -2 l-471 3
-294 815 c-315 874 -351 981 -386 1162 -16 82 -27 118 -37 118 -9 0 -12 -8 -8
-27 4 -16 11 -109 18 -208 12 -175 11 -201 -40 -960 -28 -429 -54 -808 -57
-842 l-6 -63 221 0 221 0 0 -405 0 -405 -1010 0 -1010 0 2 402 3 403 243 3
c222 2 242 4 243 20 0 9 53 646 118 1415 l117 1397 -248 0 -248 0 0 405 0 405
876 -2 876 -3 394 -1160z"/>
</g>
</svg>
