<?xml version="1.0" encoding="utf-8"?>
<!-- Generator: Adobe Illustrator 15.1.0, SVG Export Plug-In . SVG Version: 6.00 Build 0)  -->
<!DOCTYPE svg PUBLIC "-//W3C//DTD SVG 1.1//EN" "http://www.w3.org/Graphics/SVG/1.1/DTD/svg11.dtd">
<svg version="1.1" id="Layer_1" xmlns="http://www.w3.org/2000/svg" xmlns:xlink="http://www.w3.org/1999/xlink" x="0px" y="0px"
	 width="277.165px" height="378.854px" viewBox="71.876 55.594 277.165 378.854"
	 enable-background="new 71.876 55.594 277.165 378.854" xml:space="preserve">
<g>
	<path fill="#666666" d="M221.497,352.548c3.924,3.346,8.021,5.11,12.724,1.231c-1.009-7.899,0.1-14.682,8.407-22.88l87.971,81.339
		c-27.813,20.921-55.241,29.487-83.979,15.024C142.272,374.766,65.577,241.926,72.284,125.312
		c1.845-32.123,22.975-51.593,55.003-65.215l26.454,116.852c-11.251,3.099-17.68,0.661-24.019-4.155
		c-5.707,2.133-6.225,6.563-5.295,11.634C150.272,241.438,185.04,301.661,221.497,352.548L221.497,352.548z M166.156,174.19
		L138.32,57.392c7.921-3.206,19.888-2.073,25.903,2.998l23.919,101.106C183.727,167.805,176.213,172.315,166.156,174.19
		L166.156,174.19z M251.224,321.528l87.229,82.507c6.736-5.261,11.743-16.184,10.356-23.935l-75.602-71.261
		C265.538,309.506,257.875,313.757,251.224,321.528L251.224,321.528z"/>
</g>
</svg>
